<?xml version="1.0" standalone="no"?>
<!DOCTYPE svg PUBLIC "-//W3C//DTD SVG 1.1//EN" "http://www.w3.org/Graphics/SVG/1.1/DTD/svg11.dtd" >
<svg xmlns="http://www.w3.org/2000/svg">
<metadata></metadata>
<defs>
<font id="danley_editregular" horiz-adv-x="1331" >
<font-face units-per-em="2048" ascent="1638" descent="-410" />
<missing-glyph horiz-adv-x="491" />
<glyph horiz-adv-x="2048" />
<glyph horiz-adv-x="2048" />
<glyph unicode="&#xd;" horiz-adv-x="491" />
<glyph unicode=" "  horiz-adv-x="491" />
<glyph unicode="&#x09;" horiz-adv-x="491" />
<glyph unicode="&#xa0;" horiz-adv-x="491" />
<glyph unicode="!" horiz-adv-x="509" d="M123 98q0 53 39 92t92 39t92 -39t39 -92t-39 -92t-92 -39t-92 39t-39 92zM145 326v1149h215v-1149h-215z" />
<glyph unicode="&#x22;" horiz-adv-x="636" d="M96 1004l41 471h158l-43 -471h-156zM352 1004l41 471h158l-43 -471h-156z" />
<glyph unicode="#" horiz-adv-x="2150" d="M33 426l94 184h348l172 308h-319l94 184h328l208 373h218l-211 -373h489l209 371h217l-209 -371h445l-101 -182l-448 -2l-174 -308h428l-101 -184h-428l-243 -428h-211l243 428h-497l-240 -426h-211l240 426h-340zM688 610h490l174 308h-490z" />
<glyph unicode="$" horiz-adv-x="1128" d="M86 0v211h440v430h-84q-154 0 -253 84t-99 219v184q0 346 352 347h84v84h88v-84h428v-215h-428v-426h88q272 0 330 -273v-237q0 -154 -87 -239t-243 -85h-88v-205h-88v205h-440zM305 1139l2 -174q2 -129 133 -129h86v424l-116 2q-41 0 -73 -36t-32 -87zM614 211h64 q139 0 139 125v188q0 123 -131 119l-72 -2v-430z" />
<glyph unicode="%" horiz-adv-x="1505" d="M72 1053v221q0 82 51 140.5t129 58.5h268q80 0 130 -54.5t50 -144.5v-221q0 -201 -221 -201h-186q-92 0 -156.5 57.5t-64.5 143.5zM236 0l825 1475h217l-829 -1475h-213zM262 1081q0 -47 74 -47h104q58 0 58 47v164q0 16 -21.5 31.5t-44.5 15.5h-96q-74 0 -74 -55v-156z M809 197v221q0 82 51 140t129 58h268q80 0 130.5 -54t50.5 -144v-221q0 -201 -221 -201h-187q-92 0 -156.5 57.5t-64.5 143.5zM999 225q0 -47 74 -47h105q57 0 57 47v164q0 16 -21.5 31.5t-44.5 15.5h-96q-74 0 -74 -55v-156z" />
<glyph unicode="&#x26;" horiz-adv-x="1449" d="M86 319v164q0 47 23 101q33 74 98 112l147 86l-118 138q-53 63 -54 135l2 149q2 98 66 170q90 100 278 101h170q133 0 227.5 -86t94.5 -187v-145q0 -90 -96 -183q-14 -12 -222 -139l318 -315l6 78v250h213v-297q0 -125 -41 -209l234 -242h-299l-68 80q-111 -80 -260 -80 h-377q-109 0 -225.5 101.5t-116.5 217.5zM293 342q0 -117 135 -117h358q82 0 88 2q5 11 15 25l-377 379l-160 -96q-41 -25 -59 -103v-90zM395 1112l27 -80q-2 0 123 -139l229 145q29 13 29 68v51q0 104 -113 105h-196q-88 -8 -99 -109v-41z" />
<glyph unicode="'" horiz-adv-x="309" d="M96 1004l41 471h158l-43 -471h-156z" />
<glyph unicode="(" horiz-adv-x="546" d="M129 117v1177q0 195 107 334h239q-133 -137 -133 -356v-1133q0 -223 133 -356h-239q-106 133 -107 334z" />
<glyph unicode=")" horiz-adv-x="546" d="M72 -217q131 141 131 356v1133q0 219 -131 356h237q61 -76 78 -115q31 -76 31 -219v-1177q0 -201 -109 -334h-237z" />
<glyph unicode="*" horiz-adv-x="811" d="M78 1231l84 158l237 -236l-84 322h185l-78 -322l227 231l84 -157l-301 -88l301 -88l-84 -158l-229 235l78 -315h-183l91 313l-244 -231l-82 160l313 84z" />
<glyph unicode="+" horiz-adv-x="802" d="M72 346v174h247v297h173v-297h249v-172h-247v-282h-175v280h-247z" />
<glyph unicode="," horiz-adv-x="372" d="M55 125q-2 57 35 95t94 40q51 2 91 -38t42 -89q2 -35 -26 -102l-98 -236h-125l92 207q-102 16 -105 123z" />
<glyph unicode="-" horiz-adv-x="669" d="M72 469v215h526v-213z" />
<glyph unicode="." horiz-adv-x="362" d="M51 109q0 55 39 94t94 39t94 -39t39 -94t-38.5 -94.5t-94.5 -39.5q-55 0 -94 39t-39 95z" />
<glyph unicode="/" horiz-adv-x="1185" d="M72 0l825 1475h217l-831 -1475h-211z" />
<glyph unicode="0" d="M135 414v647q0 242 66 315q86 98 383 99h161q248 0 348.5 -90.5t100.5 -323.5v-647q0 -233 -70 -312q-90 -102 -379 -102h-161q-260 0 -361 104q-88 92 -88 310zM348 403q0 -106 38 -149t140 -43h281q172 -1 172 192v668q0 109 -36 149t-136 40h-281q-178 0 -178 -189 v-668z" />
<glyph unicode="1" d="M557 0v1475h213v-1475h-213z" />
<glyph unicode="2" d="M190 0v457q0 156 76 252q84 109 246 108h307q84 0 103 109l-2 235q0 41 -32 71t-75 30h-623v213h609q143 0 239.5 -90.5t96.5 -213.5v-247q0 -135 -94.5 -228.5t-221.5 -93.5l-305 -2q-106 0 -106 -125v-262l729 -2v-211h-947z" />
<glyph unicode="3" d="M168 0v213l637 -2q37 0 66.5 32.5t29.5 86.5l-2 184q0 47 -39 83t-90 36h-289v213h289q109 0 131 123v180q0 31 -22 65q-29 39 -74 50l-637 2v209h594q166 0 260 -84t94 -217v-211q0 -170 -141 -224q57 -16 99 -80.5t42 -140.5v-213q0 -131 -98 -218t-256 -87h-594z" />
<glyph unicode="4" d="M115 606q-2 53 26 101l471 768h246l-506 -836l527 -2v838h215v-1475h-215v428h-541q-102 0 -161.5 48t-61.5 130z" />
<glyph unicode="5" d="M184 0v213h590q68 0 108 34t40 83v272q0 55 -41 94t-99 39h-596v740h949v-213h-736v-312h392q141 0 242.5 -97t101.5 -239v-274q0 -154 -84 -244q-90 -96 -265 -96h-602z" />
<glyph unicode="6" d="M129 332v803q0 156 92 248t238 92h737v-213h-715q-59 0 -99 -37t-40 -92v-185h500q168 0 250 -59q102 -76 102 -262v-295q0 -133 -97.5 -232.5t-215.5 -99.5h-414q-147 0 -242.5 96.5t-95.5 235.5zM342 352q0 -43 57.5 -91t98.5 -48h362q55 0 88 34t33 87v274 q0 57 -41 92t-98 35h-357q-55 0 -99 -33.5t-44 -85.5v-264z" />
<glyph unicode="7" d="M162 1262v213h821q59 0 107 -29q59 -39 59 -113q0 -66 -8 -78l-533 -1255h-235l538 1262h-749z" />
<glyph unicode="8" d="M133 311v164q0 86 38 160t95 102q-53 25 -93 103t-40 161v164q0 109 94 203q109 106 273 107h327q182 0 281 -97q86 -84 86 -213v-164q-18 -68 -39 -118q-49 -125 -94 -146q55 -25 94 -100.5t39 -161.5v-164q0 -129 -88 -215q-100 -96 -279 -96h-327q-330 0 -367 311z M346 530l2 -204q2 -113 160 -113h299q55 0 111 37q63 41 63 100v158q0 102 -131 125h-383q-51 0 -86 -29t-35 -74zM346 965q0 -43 42 -80t93 -37h383q53 0 85 42t32 101v133q0 137 -154 138h-340q-141 0 -141 -138v-159z" />
<glyph unicode="9" d="M129 0v213h715q113 0 137 104l2 209h-498q-154 0 -254 86t-100 236v295q0 133 97.5 232.5t215.5 99.5h414q152 0 245 -97.5t93 -234.5v-803q0 -141 -96 -240.5t-234 -99.5h-737zM346 866q0 -59 20.5 -83.5t92.5 -41.5h403q121 13 121 117v266q0 45 -31 84q-43 53 -123 54 h-364q-119 0 -119 -119v-277z" />
<glyph unicode=":" horiz-adv-x="423" d="M74 106q0 55 40 95.5t95 40.5t95 -40.5t40 -95.5t-40 -95t-95 -40t-95 40t-40 95zM74 729q0 55 40 95t95 40t95 -40t40 -95t-40 -95t-95 -40t-95 40t-40 95z" />
<glyph unicode=";" horiz-adv-x="434" d="M74 729q0 55 40 95t95 40t95 -40t40 -95t-40 -95t-95 -40t-95 40t-40 95zM86 125q-2 57 35 95t94 40q51 2 91 -38t42 -89q2 -35 -26 -102l-99 -236h-125l92 207q-102 16 -104 123z" />
<glyph unicode="&#x3c;" horiz-adv-x="585" d="M74 567q6 37 16 54l279 409l141 2l-332 -473l336 -467h-145l-285 412q-16 23 -10 63z" />
<glyph unicode="=" horiz-adv-x="745" d="M72 272v174h587v-172zM72 592v174h587v-172z" />
<glyph unicode="&#x3e;" horiz-adv-x="585" d="M72 92l336 467l-332 473l141 -2l279 -409q10 -17 16 -54q6 -41 -10 -63l-285 -412h-145z" />
<glyph unicode="?" horiz-adv-x="1073" d="M41 1266v209h639q117 0 212 -93.5t95 -197.5v-252q0 -143 -98 -217q-84 -63 -219 -64h-207v-329h-211l2 380q0 68 53 111t129 43h215q61 0 97 33q29 27 28 67l2 185q2 123 -100 123zM221 102q0 55 40 95.5t95 40.5t95.5 -40.5t40.5 -95.5t-40 -95t-96 -40q-55 0 -95 40 t-40 95z" />
<glyph unicode="@" horiz-adv-x="1429" d="M109 379v723q0 195 95 284t312 89h408q209 0 308 -87.5t99 -285.5v-303q1 -377 -497 -377h-201q-59 0 -112.5 48t-53.5 126v74q0 199 166 198h239v29q0 27 -28 31l-377 2v121h371q66 0 110.5 -38t44.5 -98v-327q90 0 147.5 50t57.5 146v328q0 129 -43 179t-166 50h-536 q-123 0 -168 -48t-45 -181v-750q0 -131 45 -182t168 -51l436 2l12 -131h-452q-340 0 -340 379zM590 584q0 -39 72 -39h137q73 0 73 39v118q0 37 -63 46h-158q-61 0 -61 -46v-118z" />
<glyph unicode="A" horiz-adv-x="1302" d="M-10 0l489 1337q55 154 166 154q63 0 92 -18q49 -31 86 -136l488 -1337h-228l-112 307h-641l-113 -307h-227zM408 520h485l-246 672z" />
<glyph unicode="B" horiz-adv-x="1304" d="M129 0v1475h748q131 0 222 -90.5t91 -221.5v-178q0 -98 -35 -158q-27 -43 -92 -84q127 -57 127 -225v-137q0 -135 -80 -246q-94 -135 -258 -135h-723zM338 213h483q63 0 107.5 37t44.5 94v139q0 51 -39 97.5t-109 46.5h-487v-414zM342 840h489q61 0 103.5 40t42.5 103 v141q0 57 -32 97.5t-91 40.5h-512v-422z" />
<glyph unicode="C" horiz-adv-x="1175" d="M129 293v819q0 164 95 263.5t245 99.5h621v-213h-592q-156 0 -156 -156l4 -766q0 -55 44 -91t108 -36h587v-213h-632q-109 0 -211 82q-113 92 -113 211z" />
<glyph unicode="D" horiz-adv-x="1318" d="M129 0v1475h752q133 0 219 -91q90 -96 90 -251v-758q0 -168 -94.5 -271.5t-255.5 -103.5h-711zM342 213h487q147 0 148 178l2 733q0 74 -36 106t-120 32h-481v-1049z" />
<glyph unicode="E" horiz-adv-x="1198" d="M129 395v711q0 188 101.5 278.5t328.5 90.5h539v-213h-623q-51 0 -92 -40t-41 -96v-276h754v-215h-754v-289q0 -133 236 -133h514v-213h-572q-391 0 -391 395z" />
<glyph unicode="F" horiz-adv-x="1144" d="M129 0v1085q0 207 98.5 298.5t323.5 91.5h553v-213h-635q-55 0 -91 -46.5t-36 -105.5v-270h758v-213h-758v-627h-213z" />
<glyph unicode="G" horiz-adv-x="1312" d="M129 381v706q0 387 393 388h565v-213l-610 -2q-78 -10 -106.5 -41t-28.5 -117v-752q0 -55 33 -96t84 -41h354q68 0 112 39t44 102l2 486h213v-453q0 -236 -92 -317q-78 -70 -279 -70h-295q-389 0 -389 381z" />
<glyph unicode="H" horiz-adv-x="1327" d="M129 0v1475h213v-635h641v635h215v-1475h-215v627h-641v-627h-213z" />
<glyph unicode="I" horiz-adv-x="471" d="M129 0v1475h213v-1475h-213z" />
<glyph unicode="J" horiz-adv-x="559" d="M12 0v213h60q145 0 145 186v1076h213v-1069q0 -193 -92 -299.5t-262 -106.5h-64z" />
<glyph unicode="K" horiz-adv-x="1236" d="M129 0v1475h213v-1475h-213zM356 768q0 51 41 92l502 615h275l-586 -717l618 -758h-278l-504 623q-68 84 -68 145z" />
<glyph unicode="L" horiz-adv-x="1118" d="M129 371v1104h213v-1102q0 -84 39 -122t133 -38h559v-213h-596q-162 0 -255 101.5t-93 269.5z" />
<glyph unicode="M" horiz-adv-x="1734" d="M129 0v1260q0 229 225 229q145 0 195 -170l313 -1086l324 1086q51 170 196 170q98 0 146 -31q78 -51 78 -198v-1260h-213v1262l-330 -1100q-29 -96 -71 -137t-124 -43h-8q-74 0 -114 36q-42 38 -74 144l-330 1100v-1262h-213z" />
<glyph unicode="N" horiz-adv-x="1294" d="M129 0v1268q0 219 176 219q59 0 115.5 -39t85.5 -109l444 -1081v1217h215v-1299q0 -82 -43 -135q-49 -61 -139 -61q-86 0 -127 34q-33 27 -70 115l-444 1063v-1192h-213z" />
<glyph unicode="O" horiz-adv-x="1316" d="M129 414v647q0 215 104.5 314.5t344.5 99.5h161q233 0 341 -97.5t108 -316.5v-647q0 -215 -104.5 -314.5t-344.5 -99.5h-161q-403 0 -449 414zM342 403q0 -104 37 -148t135 -44h289q94 0 132 41t38 147v672q0 104 -35 146.5t-133 42.5h-291q-98 0 -135 -40t-37 -149v-668 z" />
<glyph unicode="P" horiz-adv-x="1239" d="M129 0v1475h639q416 0 416 -353v-211q0 -172 -102.5 -271t-290.5 -99h-449v-541h-213zM342 754h446q185 0 183 141l-2 242q0 57 -29 82.5t-115 40.5l-483 2v-508z" />
<glyph unicode="Q" horiz-adv-x="1314" d="M127 330l2 792q0 150 72.5 250.5t195.5 100.5h521q123 0 198 -103q70 -96 70 -248v-757q0 -139 -44 -214t-157 -116l-22 -8l221 -230h-293l-209 203h-227q-328 0 -328 330zM342 350q0 -137 156 -137h321q130 0 150 133v787q-18 133 -150 133h-321q-68 0 -112 -44 t-44 -118v-754z" />
<glyph unicode="R" horiz-adv-x="1273" d="M129 0v1475h745q141 0 226.5 -87.5t85.5 -220.5v-254q0 -113 -85 -199.5t-196 -86.5h-252l543 -627h-283l-542 629q-18 20 -19 63q0 43 29 84q35 49 94 62h379q119 0 117 123l-2 190q-12 90 -107 109l-520 2v-1262h-213z" />
<glyph unicode="S" horiz-adv-x="1126" d="M86 0v213l610 -2q57 0 92 41q29 35 29 84v186q0 121 -133 121l-305 -2q-123 0 -207 92t-84 211v186q0 143 64 238q68 104 186 105l702 2v-213l-628 -2q-109 0 -109 -95v-200q0 -125 137 -125h258q137 0 235.5 -83t98.5 -200v-233q0 -137 -95 -230.5t-239 -93.5h-612z" />
<glyph unicode="T" horiz-adv-x="913" d="M33 1262v213h852v-213h-320v-1262h-215v1262h-317z" />
<glyph unicode="U" horiz-adv-x="1308" d="M129 362v1113h213v-1086q0 -92 37 -134t125 -42h301q88 0 124 37t36 127v1098h215v-1113q0 -154 -82 -251q-92 -111 -260 -111h-367q-135 0 -235 98q-106 104 -107 264z" />
<glyph unicode="V" horiz-adv-x="1306" d="M2 1475h227l424 -1184l428 1184h228l-496 -1369q-25 -68 -58.5 -95t-99.5 -29h-3q-108 0 -154 124z" />
<glyph unicode="W" horiz-adv-x="1708" d="M0 1475h219l260 -1160l201 1006q35 174 172 178h6q130 0 166 -178l201 -1006l260 1160h219l-299 -1336q-35 -152 -188 -157h-6q-127 0 -160 157l-199 991l-199 -991q-31 -157 -166 -157h-2q-152 0 -186 157z" />
<glyph unicode="X" horiz-adv-x="1380" d="M0 0l557 772l-506 703h266l371 -519l373 519h266l-508 -703l561 -772h-264l-428 588l-422 -588h-266z" />
<glyph unicode="Y" horiz-adv-x="1273" d="M0 1475h252l379 -613l389 613h254l-535 -842v-633h-215l-2 631z" />
<glyph unicode="Z" horiz-adv-x="1093" d="M63 184q0 57 39 113l684 965h-704v213h776q74 0 124 -49t50 -123q0 -61 -39 -117l-688 -973h709v-213h-756q-82 0 -138.5 54.5t-56.5 129.5z" />
<glyph unicode="[" horiz-adv-x="569" d="M129 -184v1843h369v-176h-162v-1491h162v-176h-369z" />
<glyph unicode="\" horiz-adv-x="608" d="M96 1475h156l260 -1475h-158z" />
<glyph unicode="]" horiz-adv-x="569" d="M72 -8h161v1491h-161v176h368v-1843h-368v176z" />
<glyph unicode="^" horiz-adv-x="1165" d="M96 512l486 862l487 -862h-178l-309 567l-308 -567h-178z" />
<glyph unicode="_" horiz-adv-x="811" d="M-6 -184h819v-123h-819v123z" />
<glyph unicode="`" horiz-adv-x="387" d="M49 1473h203l84 -236h-125z" />
<glyph unicode="a" horiz-adv-x="1134" d="M109 297v133q0 166 73.5 255t208.5 89h455v72q0 68 -70 74l-667 2v184h655q111 0 188.5 -64.5t77.5 -164.5v-594q0 -121 -80 -202t-188 -81h-369q-104 0 -188 76q-96 86 -96 221zM295 274q0 -59 49 -77q29 -12 100 -13h250q154 0 154 90v218q0 78 -131 98h-293 q-55 0 -92 -26.5t-37 -71.5v-218z" />
<glyph unicode="b" horiz-adv-x="1130" d="M129 311v1164h184v-369h428q131 0 217 -70.5t86 -185.5l-2 -561q0 -123 -80.5 -206t-195.5 -83h-363q-109 0 -186 80q-88 88 -88 231zM313 315q0 -57 33 -94t88 -37l342 -2q33 0 58.5 31t25.5 76l-2 510q0 123 -123 123l-321 -2q-100 0 -101 -117v-488z" />
<glyph unicode="c" horiz-adv-x="937" d="M109 281v546q0 127 66.5 203t189.5 76h473v-184h-424q-43 0 -82 -33t-39 -86l2 -506q0 -47 40 -80t85 -33h420v-184h-422q-141 0 -225 79t-84 202z" />
<glyph unicode="d" horiz-adv-x="1171" d="M129 289v545q0 119 85 195.5t214 76.5h430v369h184v-1164q0 -129 -79.5 -220t-196.5 -91h-363q-109 0 -188 80q-86 84 -86 209zM313 799l2 -510q0 -106 86 -107l336 2q53 0 87 36t34 95v488q0 117 -100 117l-324 2q-68 0 -94.5 -26t-26.5 -97z" />
<glyph unicode="e" horiz-adv-x="1140" d="M129 291v495q0 319 342 320h274q135 0 213 -74t78 -209v-131l-723 -336v-49q12 -74 35 -98.5t92 -24.5h609v-184h-619q-133 0 -217 83t-84 208zM313 559l539 250v29q0 84 -113 84h-301q-125 0 -125 -140v-223z" />
<glyph unicode="f" horiz-adv-x="532" d="M129 0v1192q0 131 81 207t216 76h78v-185h-76q-49 0 -82 -38t-33 -93v-53h189v-184h-189v-922h-184z" />
<glyph unicode="g" horiz-adv-x="1150" d="M109 -176h596q135 0 137 104l2 72h-441q-119 0 -198 74q-88 84 -88 227v522q0 121 76.5 202t183.5 81h391q113 0 186.5 -63.5t73.5 -163.5v-1016q0 -223 -315 -223h-604v184zM297 299q0 -47 34 -81t85 -34h323q101 0 101 113v500q0 125 -101 125l-336 -2q-47 0 -76.5 -35 t-29.5 -86v-500z" />
<glyph unicode="h" horiz-adv-x="1155" d="M129 0v1475h184v-369h459q121 0 196.5 -69.5t75.5 -192.5v-844h-184l-2 817q0 43 -24.5 73t-61.5 30l-332 2q-127 0 -127 -123v-799h-184z" />
<glyph unicode="i" horiz-adv-x="442" d="M84 1366q0 53 39 93t94 40t94 -39t39 -94t-39 -94t-94 -39t-94 40t-39 93zM127 0v1106h184v-1106h-184z" />
<glyph unicode="j" horiz-adv-x="442" d="M-55 -176h84q41 0 68.5 26.5t27.5 69.5l2 1186h184v-1163q0 -303 -235 -303h-131v184zM84 1366q0 53 39 93t94 40t94 -39t39 -94t-39 -94t-94 -39t-94 40t-39 93z" />
<glyph unicode="k" horiz-adv-x="1105" d="M129 0v1475h184v-1475h-184zM322 573q0 51 45 99l430 434h258l-527 -533l551 -573h-254l-458 477q-45 47 -45 96z" />
<glyph unicode="l" horiz-adv-x="442" d="M129 0v1475h184v-1475h-184z" />
<glyph unicode="m" horiz-adv-x="1478" d="M109 0v825q0 125 52 203t150 78h264q113 0 166 -96q63 96 168 96h265q98 0 150 -77t52 -204v-825h-184v811q0 104 -111 104h-161q-74 0 -74 -114v-801h-184l2 823q0 43 -34 69t-83 26l-168 -3q-86 -2 -86 -88v-827h-184z" />
<glyph unicode="n" horiz-adv-x="1142" d="M109 0v821q0 285 311 285h291q311 0 311 -285v-821h-184v815q0 102 -125 103h-293q-70 0 -98.5 -25t-28.5 -94v-799h-184z" />
<glyph unicode="o" horiz-adv-x="1142" d="M109 272v576q0 113 70.5 184.5t174.5 71.5l404 2q123 0 200.5 -72.5t77.5 -185.5v-576q0 -272 -295 -272h-344q-123 0 -205.5 78t-82.5 194zM293 332q0 -147 133 -148h297q129 1 129 140v464q0 133 -129 134h-297q-133 0 -133 -134v-456z" />
<glyph unicode="p" horiz-adv-x="1142" d="M109 -360v1185q0 281 288 281h346q145 0 222 -76q70 -72 69 -192v-531q0 -135 -77.5 -221t-204.5 -86h-459v-360h-184zM293 809l2 -516q12 -109 100 -109l365 -2q37 0 64.5 26.5t27.5 63.5l-2 541q0 106 -105 107l-321 2q-66 0 -98.5 -28t-32.5 -85z" />
<glyph unicode="q" horiz-adv-x="1146" d="M109 307v531q0 268 290 268h346q139 0 214 -75t75 -206v-1185h-184v360h-459q-117 0 -196 78q-86 84 -86 229zM289 834l2 -533q0 -43 20 -78q25 -41 68 -41l364 2q103 0 103 109v516q0 113 -131 113l-346 -2q-80 0 -80 -86z" />
<glyph unicode="r" horiz-adv-x="532" d="M109 0v872q0 96 65.5 165t159.5 69h151v-186h-90q-102 0 -102 -111v-809h-184z" />
<glyph unicode="s" horiz-adv-x="1011" d="M92 0v184h565q76 0 76 111v84q0 104 -108 104h-250q-125 0 -202 67.5t-77 162.5v141q0 117 64.5 184.5t181.5 67.5h578v-184h-562q-78 0 -77 -82v-80q0 -31 24 -58q28 -32 73 -32h3h274q121 0 195 -80q68 -72 68 -174v-174q0 -82 -60 -156q-70 -86 -176 -86h-590z" />
<glyph unicode="t" horiz-adv-x="512" d="M129 0v1475h184v-369h191v-184h-191v-922h-184z" />
<glyph unicode="u" horiz-adv-x="1138" d="M109 285v821h184l2 -817q0 -100 125 -101h293q72 0 98.5 24t26.5 95v799h184v-821q0 -285 -311 -285h-291q-311 0 -311 285z" />
<glyph unicode="v" horiz-adv-x="1073" d="M4 1106h199l334 -901l333 901h199l-377 -1014q-41 -112 -153 -112h-2q-115 0 -156 112z" />
<glyph unicode="w" horiz-adv-x="1490" d="M2 1106h182l211 -879l213 807q25 92 140 92t139 -92l211 -807l211 879h182l-246 -1024q-23 -96 -141 -100h-5q-40 0 -83 28q-53 33 -68 92l-198 781l-203 -781q-27 -104 -158 -120q-117 0 -141 100z" />
<glyph unicode="x" horiz-adv-x="1038" d="M12 0l396 571l-371 535h227l254 -373l256 373h227l-370 -535l395 -571h-223l-287 412l-278 -412h-226z" />
<glyph unicode="y" horiz-adv-x="1171" d="M129 -176h637q92 0 92 117v59h-463q-111 0 -188.5 77t-77.5 193v836h184l2 -815q0 -49 37 -78t92 -29h287q127 0 127 117v805h184v-1155q0 -311 -290 -311h-623v184z" />
<glyph unicode="z" horiz-adv-x="1112" d="M72 131v7q0 63 34 98l687 686h-691v184h795q141 0 141 -117q0 -86 -22 -108l-699 -697h703v-184h-819q-125 0 -129 131z" />
<glyph unicode="{" horiz-adv-x="647" d="M117 737q55 0 92 40t37 108v553q0 145 166 145h159v-92h-24q-70 0 -94.5 -20.5t-24.5 -98.5v-471q0 -61 -40 -108.5t-105 -55.5q61 -6 103 -52t42 -112v-471q0 -72 22.5 -95t96.5 -23h24v-93h-159q-166 0 -166 146v553q0 61 -36 104t-93 43z" />
<glyph unicode="|" horiz-adv-x="614" d="M231 -123v1598h185v-1598h-185z" />
<glyph unicode="}" horiz-adv-x="647" d="M92 -16h25q74 0 96.5 23.5t22.5 94.5v471q0 66 41.5 112t103.5 52q-66 8 -105.5 55.5t-39.5 108.5v471q0 78 -25 98.5t-94 20.5h-25v92h160q166 0 166 -145v-553q0 -68 37 -108t92 -40q-57 0 -93 -43t-36 -104v-553q0 -145 -166 -146h-160v93z" />
<glyph unicode="~" horiz-adv-x="962" d="M96 590v37q0 133 68 196q51 45 131 47q55 2 125 -26l182 -74q43 -12 68 -12q41 0 61 53q2 6 12 43l2 18h121v-36q0 -106 -45 -170q-53 -74 -153 -74q-57 0 -125 26l-178 70q-33 10 -76 17q-37 0 -58 -54q-2 -6 -12 -43l-2 -18h-121z" />
<glyph unicode="&#xa1;" horiz-adv-x="509" d="M123 1231q0 53 39 92t92 39t92 -39t39 -92t-39 -92t-92 -39t-92 39t-39 92zM145 -145v1149h215v-1149h-215z" />
<glyph unicode="&#xa2;" horiz-adv-x="937" d="M109 274v549q0 143 71.5 213t237.5 70h96v98h88v-98h236v-182h-236v-740h238v-184h-238v-160h-88v160h-96q-129 0 -219 79t-90 195zM293 315q0 -51 30.5 -89t77.5 -38l113 -2v736h-108q-45 0 -78 -29t-33 -70z" />
<glyph unicode="&#xa3;" horiz-adv-x="1265" d="M55 641v213h250v320q0 188 80 251q61 49 219 50h125q115 0 199 -85t84 -204v-139h-221l-3 114q-2 68 -26 88q-16 12 -66 13h-80q-41 0 -70.5 -27t-29.5 -66l-2 -317h330v-209h-330l2 -188q2 -121 -88 -244h453q135 0 131 135l-2 86h215v-84q0 -170 -89 -259t-235 -89 h-844v209q100 16 174 95t74 183v154h-250z" />
<glyph unicode="&#xa5;" horiz-adv-x="1298" d="M12 1475h252l379 -613l389 613h254l-375 -607h338v-145h-426l-71 -90l2 -92h493v-148l-493 -2l-2 -391h-215v393h-478v150h478l-2 88l-52 92h-422v147h332z" />
<glyph unicode="&#xa8;" horiz-adv-x="761" d="M80 1346q0 53 38 91t91 38t91 -38t38 -91t-38 -91t-91 -38t-91 37.5t-38 91.5zM438 1346q0 53 38 91t91 38t91 -38t38 -91t-37.5 -91t-91.5 -38q-53 0 -91 37.5t-38 91.5z" />
<glyph unicode="&#xa9;" horiz-adv-x="1724" d="M59 735q0 332 234.5 566.5t566.5 234.5t566.5 -234.5t234.5 -566.5t-234.5 -566.5t-566.5 -234.5t-566.5 234.5t-234.5 566.5zM184 737q0 -279 199 -477.5t477 -198.5q281 0 478.5 198.5t197.5 477.5q0 281 -197.5 478.5t-478.5 197.5q-279 0 -477.5 -197.5 t-198.5 -478.5zM522 463v491q0 98 57.5 157.5t147.5 59.5h371v-127h-355q-94 0 -94 -94l4 -458q0 -76 90 -76h353v-129h-379q-66 0 -127 49q-68 55 -68 127z" />
<glyph unicode="&#xaa;" horiz-adv-x="724" d="M76 977v80q0 217 180 217h262v33q0 29 -33 32l-409 2v132h403q72 0 121 -41t49 -107v-356q0 -78 -51 -129.5t-121 -51.5h-221q-66 0 -119 48q-61 55 -61 141zM207 963q0 -43 80 -43h149q82 0 82 43v131q0 41 -69 49h-175q-68 0 -67 -49v-131z" />
<glyph unicode="&#xab;" horiz-adv-x="917" d="M74 567q6 37 16 54l279 409l157 2l-331 -473l335 -467h-161l-275 395q-23 63 -20 80zM397 567q2 29 19 54l278 409l158 2l-332 -473l336 -467h-162l-276 395q-23 49 -21 80z" />
<glyph unicode="&#xad;" horiz-adv-x="669" d="M72 469v215h526v-213z" />
<glyph unicode="&#xae;" horiz-adv-x="1724" d="M59 735q0 332 234.5 566.5t566.5 234.5t566.5 -234.5t234.5 -566.5t-234.5 -566.5t-566.5 -234.5t-566.5 234.5t-234.5 566.5zM184 737q0 -279 199 -477.5t477 -198.5q281 0 478.5 198.5t197.5 477.5q0 281 -197.5 478.5t-478.5 197.5q-279 0 -477.5 -197.5 t-198.5 -478.5zM573 309v885h449q84 0 135 -52t51 -132v-154q0 -68 -50 -120t-118 -52h-151l325 -375h-170l-325 377q-10 12 -10 39q0 72 73 86h228q72 0 69 74l-2 114q-6 53 -63 66h-312v-756h-129z" />
<glyph unicode="&#xb2;" horiz-adv-x="798" d="M104 567v285q0 96 48 158q55 68 155 67h185q45 0 51 58l-2 139q0 51 -54 51h-383v148h375q90 0 150.5 -56.5t60.5 -136.5v-147q0 -86 -59.5 -145.5t-138.5 -59.5h-183q-55 0 -55 -66v-147h438v-148h-588z" />
<glyph unicode="&#xb3;" horiz-adv-x="798" d="M111 567v148h393q49 0 47 61l-2 111q0 23 -20.5 41t-45.5 18h-184v150h184q57 0 68 65v107q0 49 -49 57l-391 2v146h366q104 0 163.5 -53.5t59.5 -137.5v-127q0 -96 -69 -133q70 -47 69 -133v-129q0 -80 -62.5 -136.5t-160.5 -56.5h-366z" />
<glyph unicode="&#xb4;" horiz-adv-x="438" d="M92 1237l86 236h201l-162 -236h-125z" />
<glyph unicode="&#xb7;" horiz-adv-x="417" d="M92 502q0 57 40 97t97 40t97.5 -40t40.5 -97t-40 -97t-98 -40q-57 0 -97 39.5t-40 97.5z" />
<glyph unicode="&#xb8;" horiz-adv-x="262" d="M12 -252l101 219h137l-105 -219h-133z" />
<glyph unicode="&#xb9;" horiz-adv-x="798" d="M324 567v906h149v-906h-149z" />
<glyph unicode="&#xba;" horiz-adv-x="720" d="M76 963v344q0 74 45 120t112 46h242q80 0 129 -46.5t49 -119.5v-344q0 -174 -188 -175h-207q-78 0 -130 49.5t-52 125.5zM207 997q0 -78 69 -77h179q67 -1 67 73v279q0 70 -67 69h-179q-70 0 -69 -69v-275z" />
<glyph unicode="&#xbb;" horiz-adv-x="917" d="M70 92l336 467l-332 473l157 -2l279 -409q16 -25 18 -54q2 -31 -20 -80l-277 -395h-161zM395 92l336 467l-332 473l158 -2l279 -409q10 -17 16 -54q2 -16 -21 -80l-274 -395h-162z" />
<glyph unicode="&#xbf;" horiz-adv-x="1073" d="M61 154v252q0 143 99 217q84 63 219 63h207v330h211l-2 -381q0 -68 -53.5 -111t-129.5 -43h-215q-61 0 -93 -29.5t-32 -70.5l-2 -184q-2 -123 101 -123l637 -2v-209h-639q-117 0 -212.5 93t-95.5 198zM557 1235q0 55 40 95t95 40t95 -40t40 -95t-39.5 -95t-95.5 -40 q-55 0 -95 40t-40 95z" />
<glyph unicode="&#xc0;" horiz-adv-x="1302" d="M-10 0l489 1337q55 154 166 154q63 0 92 -18q49 -31 86 -136l488 -1337h-228l-112 307h-641l-113 -307h-227zM399 1780h203l84 -236h-125zM408 520h485l-246 672z" />
<glyph unicode="&#xc1;" horiz-adv-x="1302" d="M-10 0l489 1337q55 154 166 154q63 0 92 -18q49 -31 86 -136l488 -1337h-228l-112 307h-641l-113 -307h-227zM408 520h485l-246 672zM596 1556l86 236h201l-162 -236h-125z" />
<glyph unicode="&#xc2;" horiz-adv-x="1302" d="M-10 0l489 1337q55 154 166 154q63 0 92 -18q49 -31 86 -136l488 -1337h-228l-112 307h-641l-113 -307h-227zM379 1567l160 256h217l174 -254h-160l-118 174l-113 -176h-160zM408 520h485l-246 672z" />
<glyph unicode="&#xc3;" horiz-adv-x="1302" d="M-10 0l489 1337q55 154 166 154q63 0 92 -18q49 -31 86 -136l488 -1337h-228l-112 307h-641l-113 -307h-227zM303 1618v131l60 35q45 27 120 29q18 0 142.5 -50.5t148.5 -50.5q41 0 88 27l103 57v-127l-68 -41q-55 -33 -125 -35q-47 0 -156.5 56.5t-125.5 56.5 q-37 0 -78 -20zM408 520h485l-246 672z" />
<glyph unicode="&#xc4;" horiz-adv-x="1302" d="M-10 0l489 1337q55 154 166 154q63 0 92 -18q49 -31 86 -136l488 -1337h-228l-112 307h-641l-113 -307h-227zM344 1684q0 53 38 91t91 38t91 -38t38 -91t-38 -91t-91 -38t-91 37.5t-38 91.5zM408 520h485l-246 672zM702 1684q0 53 38 91t91 38t91 -38t38 -91t-37.5 -91 t-91.5 -38q-53 0 -91 37.5t-38 91.5z" />
<glyph unicode="&#xc5;" horiz-adv-x="1302" d="M-10 0l489 1337q55 154 166 154q63 0 92 -18q49 -31 86 -136l488 -1337h-228l-112 307h-641l-113 -307h-227zM408 520h485l-246 672zM444 1774q0 80 57.5 137t137.5 57t137 -57t57 -137t-57.5 -137.5t-136.5 -57.5q-80 0 -137.5 57.5t-57.5 137.5zM549 1772 q0 -37 26.5 -63.5t63.5 -26.5t63.5 26.5t26.5 63.5t-27 63.5t-63 26.5q-37 0 -63.5 -26.5t-26.5 -63.5z" />
<glyph unicode="&#xc6;" horiz-adv-x="1699" d="M-10 0l489 1337q55 154 166 154q133 0 164 -66q104 49 262 50h539v-213h-623q-51 0 -92 -40t-41 -96v-276h754v-215h-754v-289q0 -133 236 -133h514v-213h-572q-336 0 -385 307h-317l-113 -307h-227zM408 520h237l2 670z" />
<glyph unicode="&#xc7;" horiz-adv-x="1175" d="M129 293v819q0 164 95 263.5t245 99.5h621v-213h-592q-156 0 -156 -156l4 -766q0 -55 44 -91t108 -36h587v-213h-632q-109 0 -211 82q-113 92 -113 211zM528 -232l101 219h137l-105 -219h-133z" />
<glyph unicode="&#xc8;" horiz-adv-x="1198" d="M129 395v711q0 188 101.5 278.5t328.5 90.5h539v-213h-623q-51 0 -92 -40t-41 -96v-276h754v-215h-754v-289q0 -133 236 -133h514v-213h-572q-391 0 -391 395zM448 1799h203l84 -236h-125z" />
<glyph unicode="&#xc9;" horiz-adv-x="1198" d="M129 395v711q0 188 101.5 278.5t328.5 90.5h539v-213h-623q-51 0 -92 -40t-41 -96v-276h754v-215h-754v-289q0 -133 236 -133h514v-213h-572q-391 0 -391 395zM590 1538l86 236h201l-162 -236h-125z" />
<glyph unicode="&#xca;" horiz-adv-x="1198" d="M129 395v711q0 188 101.5 278.5t328.5 90.5h539v-213h-623q-51 0 -92 -40t-41 -96v-276h754v-215h-754v-289q0 -133 236 -133h514v-213h-572q-391 0 -391 395zM366 1579l160 256h217l174 -254h-160l-118 174l-113 -176h-160z" />
<glyph unicode="&#xcb;" horiz-adv-x="1198" d="M129 395v711q0 188 101.5 278.5t328.5 90.5h539v-213h-623q-51 0 -92 -40t-41 -96v-276h754v-215h-754v-289q0 -133 236 -133h514v-213h-572q-391 0 -391 395zM356 1659q0 53 38 91t91 38t91 -38t38 -91t-38 -91t-91 -38t-91 37.5t-38 91.5zM714 1659q0 53 38 91t91 38 t91 -38t38 -91t-37.5 -91t-91.5 -38q-53 0 -91 37.5t-38 91.5z" />
<glyph unicode="&#xcc;" horiz-adv-x="471" d="M12 1774h203l84 -236h-125zM129 0v1475h213v-1475h-213z" />
<glyph unicode="&#xcd;" horiz-adv-x="471" d="M129 0v1475h213v-1475h-213zM178 1538l86 236h201l-162 -236h-125z" />
<glyph unicode="&#xce;" horiz-adv-x="471" d="M-39 1543l160 256h217l174 -254h-160l-118 174l-113 -176h-160zM129 0v1475h213v-1475h-213z" />
<glyph unicode="&#xcf;" horiz-adv-x="471" d="M-67 1659q0 53 38 91t91 38t91 -38t38 -91t-38 -91t-91 -38t-91 37.5t-38 91.5zM129 0v1475h213v-1475h-213zM291 1659q0 53 38 91t91 38t91 -38t38 -91t-37.5 -91t-91.5 -38q-53 0 -91 37.5t-38 91.5z" />
<glyph unicode="&#xd1;" horiz-adv-x="1294" d="M129 0v1268q0 219 176 219q59 0 115.5 -39t85.5 -109l444 -1081v1217h215v-1299q0 -82 -43 -135q-49 -61 -139 -61q-86 0 -127 34q-33 27 -70 115l-444 1063v-1192h-213zM315 1593v131l60 35q45 27 120 29q18 0 142.5 -50.5t148.5 -50.5q41 0 88 27l103 57v-127l-68 -41 q-55 -33 -125 -35q-47 0 -156.5 56.5t-125.5 56.5q-37 0 -78 -20z" />
<glyph unicode="&#xd2;" horiz-adv-x="1316" d="M129 414v647q0 215 104.5 314.5t344.5 99.5h161q233 0 341 -97.5t108 -316.5v-647q0 -215 -104.5 -314.5t-344.5 -99.5h-161q-403 0 -449 414zM342 403q0 -104 37 -148t135 -44h289q94 0 132 41t38 147v672q0 104 -35 146.5t-133 42.5h-291q-98 0 -135 -40t-37 -149v-668 zM424 1786h203l84 -236h-125z" />
<glyph unicode="&#xd3;" horiz-adv-x="1316" d="M129 414v647q0 215 104.5 314.5t344.5 99.5h161q233 0 341 -97.5t108 -316.5v-647q0 -215 -104.5 -314.5t-344.5 -99.5h-161q-403 0 -449 414zM342 403q0 -104 37 -148t135 -44h289q94 0 132 41t38 147v672q0 104 -35 146.5t-133 42.5h-291q-98 0 -135 -40t-37 -149v-668 zM614 1544l86 236h201l-162 -236h-125z" />
<glyph unicode="&#xd4;" horiz-adv-x="1316" d="M129 414v647q0 215 104.5 314.5t344.5 99.5h161q233 0 341 -97.5t108 -316.5v-647q0 -215 -104.5 -314.5t-344.5 -99.5h-161q-403 0 -449 414zM342 403q0 -104 37 -148t135 -44h289q94 0 132 41t38 147v672q0 104 -35 146.5t-133 42.5h-291q-98 0 -135 -40t-37 -149v-668 zM354 1561l160 256h217l174 -254h-160l-118 174l-113 -176h-160z" />
<glyph unicode="&#xd5;" horiz-adv-x="1316" d="M129 414v647q0 215 104.5 314.5t344.5 99.5h161q233 0 341 -97.5t108 -316.5v-647q0 -215 -104.5 -314.5t-344.5 -99.5h-161q-403 0 -449 414zM303 1593v131l60 35q45 27 120 29q18 0 142.5 -50.5t148.5 -50.5q41 0 88 27l103 57v-127l-68 -41q-55 -33 -125 -35 q-47 0 -156.5 56.5t-125.5 56.5q-37 0 -78 -20zM342 403q0 -104 37 -148t135 -44h289q94 0 132 41t38 147v672q0 104 -35 146.5t-133 42.5h-291q-98 0 -135 -40t-37 -149v-668z" />
<glyph unicode="&#xd6;" horiz-adv-x="1316" d="M129 414v647q0 215 104.5 314.5t344.5 99.5h161q233 0 341 -97.5t108 -316.5v-647q0 -215 -104.5 -314.5t-344.5 -99.5h-161q-403 0 -449 414zM338 1678q0 53 38 91t91 38t91 -38t38 -91t-38 -91t-91 -38t-91 37.5t-38 91.5zM342 403q0 -104 37 -148t135 -44h289 q94 0 132 41t38 147v672q0 104 -35 146.5t-133 42.5h-291q-98 0 -135 -40t-37 -149v-668zM696 1678q0 53 38 91t91 38t91 -38t38 -91t-37.5 -91t-91.5 -38q-53 0 -91 37.5t-38 91.5z" />
<glyph unicode="&#xd8;" horiz-adv-x="1320" d="M129 418v639q0 217 96 313q104 104 342 105h236q121 0 252 -76l51 80l86 -2l-82 -127q82 -94 82 -291v-643q0 -219 -104.5 -317.5t-346.5 -98.5h-161q-215 0 -301 66l-43 -66l-91 -4l78 121q-94 119 -94 301zM346 410l8 -93l582 897q-43 43 -133 43h-289q-92 0 -130 -43 t-38 -147v-657zM399 250q53 -33 111 -33h285q180 0 180 186l-2 736z" />
<glyph unicode="&#xd9;" horiz-adv-x="1308" d="M129 362v1113h213v-1086q0 -92 37 -134t125 -42h301q88 0 124 37t36 127v1098h215v-1113q0 -154 -82 -251q-92 -111 -260 -111h-367q-135 0 -235 98q-106 104 -107 264zM436 1756h203l84 -236h-125z" />
<glyph unicode="&#xda;" horiz-adv-x="1308" d="M129 362v1113h213v-1086q0 -92 37 -134t125 -42h301q88 0 124 37t36 127v1098h215v-1113q0 -154 -82 -251q-92 -111 -260 -111h-367q-135 0 -235 98q-106 104 -107 264zM590 1532l86 236h201l-162 -236h-125z" />
<glyph unicode="&#xdb;" horiz-adv-x="1308" d="M129 362v1113h213v-1086q0 -92 37 -134t125 -42h301q88 0 124 37t36 127v1098h215v-1113q0 -154 -82 -251q-92 -111 -260 -111h-367q-135 0 -235 98q-106 104 -107 264zM372 1543l160 256h217l174 -254h-160l-118 174l-113 -176h-160z" />
<glyph unicode="&#xdc;" horiz-adv-x="1308" d="M129 362v1113h213v-1086q0 -92 37 -134t125 -42h301q88 0 124 37t36 127v1098h215v-1113q0 -154 -82 -251q-92 -111 -260 -111h-367q-135 0 -235 98q-106 104 -107 264zM338 1672q0 53 38 91t91 38t91 -38t38 -91t-38 -91t-91 -38t-91 37.5t-38 91.5zM696 1672 q0 53 38 91t91 38t91 -38t38 -91t-37.5 -91t-91.5 -38q-53 0 -91 37.5t-38 91.5z" />
<glyph unicode="&#xdd;" horiz-adv-x="1273" d="M0 1475h252l379 -613l389 613h254l-535 -842v-633h-215l-2 631zM620 1501l86 236h201l-162 -236h-125z" />
<glyph unicode="&#xdf;" horiz-adv-x="1234" d="M129 -225v1347q0 152 85 252.5t216 100.5h236q109 0 198 -64q102 -70 101 -174l-2 -154q-2 -102 -86 -168q98 -33 178 -88q123 -86 123 -188l2 -299q0 -145 -98.5 -242.5t-237.5 -97.5h-438v221h428q111 0 129 105l2 219q0 88 -55.5 141t-157.5 53h-349v209h211 q51 0 93 35q49 41 49 107v61q0 43 -34 77t-79 34h-158q-145 0 -145 -121v-1366h-211z" />
<glyph unicode="&#xe0;" horiz-adv-x="1134" d="M109 297v133q0 166 73.5 255t208.5 89h455v72q0 68 -70 74l-667 2v184h655q111 0 188.5 -64.5t77.5 -164.5v-594q0 -121 -80 -202t-188 -81h-369q-104 0 -188 76q-96 86 -96 221zM295 274q0 -59 49 -77q29 -12 100 -13h250q154 0 154 90v218q0 78 -131 98h-293 q-55 0 -92 -26.5t-37 -71.5v-218zM350 1424h203l84 -236h-125z" />
<glyph unicode="&#xe1;" horiz-adv-x="1134" d="M109 297v133q0 166 73.5 255t208.5 89h455v72q0 68 -70 74l-667 2v184h655q111 0 188.5 -64.5t77.5 -164.5v-594q0 -121 -80 -202t-188 -81h-369q-104 0 -188 76q-96 86 -96 221zM295 274q0 -59 49 -77q29 -12 100 -13h250q154 0 154 90v218q0 78 -131 98h-293 q-55 0 -92 -26.5t-37 -71.5v-218zM522 1188l86 236h201l-162 -236h-125z" />
<glyph unicode="&#xe2;" horiz-adv-x="1134" d="M109 297v133q0 166 73.5 255t208.5 89h455v72q0 68 -70 74l-667 2v184h655q111 0 188.5 -64.5t77.5 -164.5v-594q0 -121 -80 -202t-188 -81h-369q-104 0 -188 76q-96 86 -96 221zM256 1180l160 256h217l174 -254h-160l-118 174l-113 -176h-160zM295 274q0 -59 49 -77 q29 -12 100 -13h250q154 0 154 90v218q0 78 -131 98h-293q-55 0 -92 -26.5t-37 -71.5v-218z" />
<glyph unicode="&#xe3;" horiz-adv-x="1134" d="M109 297v133q0 166 73.5 255t208.5 89h455v72q0 68 -70 74l-667 2v184h655q111 0 188.5 -64.5t77.5 -164.5v-594q0 -121 -80 -202t-188 -81h-369q-104 0 -188 76q-96 86 -96 221zM235 1206v131l60 35q45 27 120 29q18 0 142.5 -50.5t148.5 -50.5q41 0 88 27l103 57v-127 l-68 -41q-55 -33 -125 -35q-47 0 -156.5 56.5t-125.5 56.5q-37 0 -78 -20zM295 274q0 -59 49 -77q29 -12 100 -13h250q154 0 154 90v218q0 78 -131 98h-293q-55 0 -92 -26.5t-37 -71.5v-218z" />
<glyph unicode="&#xe4;" horiz-adv-x="1134" d="M109 297v133q0 166 73.5 255t208.5 89h455v72q0 68 -70 74l-667 2v184h655q111 0 188.5 -64.5t77.5 -164.5v-594q0 -121 -80 -202t-188 -81h-369q-104 0 -188 76q-96 86 -96 221zM258 1328q0 53 38 91t91 38t91 -38t38 -91t-38 -91t-91 -38t-91 37.5t-38 91.5zM295 274 q0 -59 49 -77q29 -12 100 -13h250q154 0 154 90v218q0 78 -131 98h-293q-55 0 -92 -26.5t-37 -71.5v-218zM616 1328q0 53 38 91t91 38t91 -38t38 -91t-37.5 -91t-91.5 -38q-53 0 -91 37.5t-38 91.5z" />
<glyph unicode="&#xe5;" horiz-adv-x="1134" d="M109 297v133q0 166 73.5 255t208.5 89h455v72q0 68 -70 74l-667 2v184h655q111 0 188.5 -64.5t77.5 -164.5v-594q0 -121 -80 -202t-188 -81h-369q-104 0 -188 76q-96 86 -96 221zM295 274q0 -59 49 -77q29 -12 100 -13h250q154 0 154 90v218q0 78 -131 98h-293 q-55 0 -92 -26.5t-37 -71.5v-218zM377 1399q0 80 57.5 137t137.5 57t137 -57t57 -137t-57.5 -137.5t-136.5 -57.5q-80 0 -137.5 57.5t-57.5 137.5zM482 1397q0 -37 26.5 -63.5t63.5 -26.5t63.5 26.5t26.5 63.5t-27 63.5t-63 26.5q-37 0 -63.5 -26.5t-26.5 -63.5z" />
<glyph unicode="&#xe6;" horiz-adv-x="1843" d="M109 297v133q0 166 73.5 255t208.5 89h455v72q0 68 -70 74l-667 2v184h655q113 0 186 -64q84 63 238 64h274q135 0 213 -74t78 -209v-131l-721 -336v-49q12 -74 35 -98.5t90 -24.5h608v-184h-618q-125 0 -205 74q-78 -74 -180 -74h-369q-104 0 -188 76q-96 86 -96 221z M295 274q0 -59 49 -77q29 -12 100 -13h250q154 0 154 90v218q0 78 -131 98h-293q-55 0 -92 -26.5t-37 -71.5v-218zM1030 559l539 250v29q0 84 -113 84h-301q-111 0 -125 -107v-256z" />
<glyph unicode="&#xe7;" horiz-adv-x="937" d="M109 281v546q0 127 66.5 203t189.5 76h473v-184h-424q-43 0 -82 -33t-39 -86l2 -506q0 -47 40 -80t85 -33h420v-184h-422q-141 0 -225 79t-84 202zM364 -225l101 219h137l-105 -219h-133z" />
<glyph unicode="&#xe8;" horiz-adv-x="1140" d="M129 291v495q0 319 342 320h274q135 0 213 -74t78 -209v-131l-723 -336v-49q12 -74 35 -98.5t92 -24.5h609v-184h-619q-133 0 -217 83t-84 208zM313 559l539 250v29q0 84 -113 84h-301q-125 0 -125 -140v-223zM350 1430h203l84 -236h-125z" />
<glyph unicode="&#xe9;" horiz-adv-x="1140" d="M129 291v495q0 319 342 320h274q135 0 213 -74t78 -209v-131l-723 -336v-49q12 -74 35 -98.5t92 -24.5h609v-184h-619q-133 0 -217 83t-84 208zM313 559l539 250v29q0 84 -113 84h-301q-125 0 -125 -140v-223zM510 1176l86 236h201l-162 -236h-125z" />
<glyph unicode="&#xea;" horiz-adv-x="1140" d="M129 291v495q0 319 342 320h274q135 0 213 -74t78 -209v-131l-723 -336v-49q12 -74 35 -98.5t92 -24.5h609v-184h-619q-133 0 -217 83t-84 208zM299 1211l160 256h217l174 -254h-160l-118 174l-113 -176h-160zM313 559l539 250v29q0 84 -113 84h-301q-125 0 -125 -140 v-223z" />
<glyph unicode="&#xeb;" horiz-adv-x="1140" d="M129 291v495q0 319 342 320h274q135 0 213 -74t78 -209v-131l-723 -336v-49q12 -74 35 -98.5t92 -24.5h609v-184h-619q-133 0 -217 83t-84 208zM270 1309q0 53 38 91t91 38t91 -38t38 -91t-38 -91t-91 -38t-91 37.5t-38 91.5zM313 559l539 250v29q0 84 -113 84h-301 q-125 0 -125 -140v-223zM628 1309q0 53 38 91t91 38t91 -38t38 -91t-37.5 -91t-91.5 -38q-53 0 -91 37.5t-38 91.5z" />
<glyph unicode="&#xec;" horiz-adv-x="442" d="M-12 1436h203l84 -236h-125zM127 0v1106h184v-1106h-184z" />
<glyph unicode="&#xed;" horiz-adv-x="442" d="M127 0v1106h184v-1106h-184zM160 1188l86 236h201l-162 -236h-125z" />
<glyph unicode="&#xee;" horiz-adv-x="442" d="M-51 1205l160 256h217l174 -254h-160l-118 174l-113 -176h-160zM127 0v1106h184v-1106h-184z" />
<glyph unicode="&#xef;" horiz-adv-x="442" d="M-86 1340q0 53 38 91t91 38t91 -38t38 -91t-38 -91t-91 -38t-91 37.5t-38 91.5zM127 0v1106h184v-1106h-184zM272 1340q0 53 38 91t91 38t91 -38t38 -91t-37.5 -91t-91.5 -38q-53 0 -91 37.5t-38 91.5z" />
<glyph unicode="&#xf1;" horiz-adv-x="1142" d="M109 0v821q0 285 311 285h291q311 0 311 -285v-821h-184v815q0 102 -125 103h-293q-70 0 -98.5 -25t-28.5 -94v-799h-184zM229 1219v131l60 35q45 27 120 29q18 0 142.5 -50.5t148.5 -50.5q41 0 88 27l103 57v-127l-68 -41q-55 -33 -125 -35q-47 0 -156.5 56.5 t-125.5 56.5q-37 0 -78 -20z" />
<glyph unicode="&#xf2;" horiz-adv-x="1142" d="M109 272v576q0 113 70.5 184.5t174.5 71.5l404 2q123 0 200.5 -72.5t77.5 -185.5v-576q0 -272 -295 -272h-344q-123 0 -205.5 78t-82.5 194zM293 332q0 -147 133 -148h297q129 1 129 140v464q0 133 -129 134h-297q-133 0 -133 -134v-456zM325 1442h203l84 -236h-125z" />
<glyph unicode="&#xf3;" horiz-adv-x="1142" d="M109 272v576q0 113 70.5 184.5t174.5 71.5l404 2q123 0 200.5 -72.5t77.5 -185.5v-576q0 -272 -295 -272h-344q-123 0 -205.5 78t-82.5 194zM293 332q0 -147 133 -148h297q129 1 129 140v464q0 133 -129 134h-297q-133 0 -133 -134v-456zM534 1182l86 236h201l-162 -236 h-125z" />
<glyph unicode="&#xf4;" horiz-adv-x="1142" d="M109 272v576q0 113 70.5 184.5t174.5 71.5l404 2q123 0 200.5 -72.5t77.5 -185.5v-576q0 -272 -295 -272h-344q-123 0 -205.5 78t-82.5 194zM262 1186l160 256h217l174 -254h-160l-118 174l-113 -176h-160zM293 332q0 -147 133 -148h297q129 1 129 140v464 q0 133 -129 134h-297q-133 0 -133 -134v-456z" />
<glyph unicode="&#xf5;" horiz-adv-x="1142" d="M109 272v576q0 113 70.5 184.5t174.5 71.5l404 2q123 0 200.5 -72.5t77.5 -185.5v-576q0 -272 -295 -272h-344q-123 0 -205.5 78t-82.5 194zM229 1219v131l60 35q45 27 120 29q18 0 142.5 -50.5t148.5 -50.5q41 0 88 27l103 57v-127l-68 -41q-55 -33 -125 -35 q-47 0 -156.5 56.5t-125.5 56.5q-37 0 -78 -20zM293 332q0 -147 133 -148h297q129 1 129 140v464q0 133 -129 134h-297q-133 0 -133 -134v-456z" />
<glyph unicode="&#xf6;" horiz-adv-x="1142" d="M109 272v576q0 113 70.5 184.5t174.5 71.5l404 2q123 0 200.5 -72.5t77.5 -185.5v-576q0 -272 -295 -272h-344q-123 0 -205.5 78t-82.5 194zM289 1321q0 53 38 91t91 38t91 -38t38 -91t-38 -91t-91 -38t-91 37.5t-38 91.5zM293 332q0 -147 133 -148h297q129 1 129 140 v464q0 133 -129 134h-297q-133 0 -133 -134v-456zM647 1321q0 53 38 91t91 38t91 -38t38 -91t-37.5 -91t-91.5 -38q-53 0 -91 37.5t-38 91.5z" />
<glyph unicode="&#xf8;" horiz-adv-x="1105" d="M88 270v580q0 113 70.5 183.5t175.5 70.5l391 2q39 0 182 -37l31 45l80 -8l-60 -84q57 -76 58 -172v-580q0 -109 -76 -184q-82 -86 -217 -86h-340q-68 10 -168 43l-31 -43h-84l64 84q-76 111 -76 186zM274 336q0 -55 17 -88l493 657q-16 12 -79 21h-299q-131 0 -132 -140 v-450zM338 199q29 -12 65 -13h302q126 1 126 140l-8 522z" />
<glyph unicode="&#xf9;" horiz-adv-x="1138" d="M109 285v821h184l2 -817q0 -100 125 -101h293q72 0 98.5 24t26.5 95v799h184v-821q0 -285 -311 -285h-291q-311 0 -311 285zM350 1405h203l84 -236h-125z" />
<glyph unicode="&#xfa;" horiz-adv-x="1138" d="M109 285v821h184l2 -817q0 -100 125 -101h293q72 0 98.5 24t26.5 95v799h184v-821q0 -285 -311 -285h-291q-311 0 -311 285zM485 1163l86 236h201l-162 -236h-125z" />
<glyph unicode="&#xfb;" horiz-adv-x="1138" d="M109 285v821h184l2 -817q0 -100 125 -101h293q72 0 98.5 24t26.5 95v799h184v-821q0 -285 -311 -285h-291q-311 0 -311 285zM268 1180l160 256h217l174 -254h-160l-118 174l-113 -176h-160z" />
<glyph unicode="&#xfc;" horiz-adv-x="1138" d="M109 285v821h184l2 -817q0 -100 125 -101h293q72 0 98.5 24t26.5 95v799h184v-821q0 -285 -311 -285h-291q-311 0 -311 285zM246 1328q0 53 38 91t91 38t91 -38t38 -91t-38 -91t-91 -38t-91 37.5t-38 91.5zM604 1328q0 53 38 91t91 38t91 -38t38 -91t-37.5 -91t-91.5 -38 q-53 0 -91 37.5t-38 91.5z" />
<glyph unicode="&#xfd;" horiz-adv-x="1171" d="M129 -176h637q92 0 92 117v59h-463q-111 0 -188.5 77t-77.5 193v836h184l2 -815q0 -49 37 -78t92 -29h287q127 0 127 117v805h184v-1155q0 -311 -290 -311h-623v184zM541 1157l86 236h201l-162 -236h-125z" />
<glyph unicode="&#xff;" horiz-adv-x="1171" d="M129 -176h637q92 0 92 117v59h-463q-111 0 -188.5 77t-77.5 193v836h184l2 -815q0 -49 37 -78t92 -29h287q127 0 127 117v805h184v-1155q0 -311 -290 -311h-623v184zM270 1328q0 53 38 91t91 38t91 -38t38 -91t-38 -91t-91 -38t-91 37.5t-38 91.5zM628 1328q0 53 38 91 t91 38t91 -38t38 -91t-37.5 -91t-91.5 -38q-53 0 -91 37.5t-38 91.5z" />
<glyph unicode="&#x152;" horiz-adv-x="2052" d="M129 414v647q0 215 104.5 314.5t344.5 99.5h161q227 0 334 -95q106 94 330 95h539v-213h-623q-51 0 -92 -40t-41 -96l2 -276h751v-215h-751l-2 -289q0 -133 235 -133h514v-213h-571q-188 0 -285 94q-106 -94 -340 -94h-161q-403 0 -449 414zM342 403q0 -104 37 -148 t135 -44h289q94 0 132 41t38 147v672q0 104 -35 146.5t-133 42.5h-291q-98 0 -135 -40t-37 -149v-668z" />
<glyph unicode="&#x153;" horiz-adv-x="1861" d="M109 272v576q0 113 70.5 184.5t174.5 71.5l404 2q117 0 194 -68q84 68 242 68h274q135 0 213 -74t78 -209v-131l-723 -336v-49q12 -74 35 -98.5t92 -24.5h609v-184h-619q-119 0 -199 68q-78 -68 -213 -68h-344q-123 0 -205.5 78t-82.5 194zM293 332q0 -147 133 -148h297 q129 1 129 140v464q0 133 -129 134h-297q-133 0 -133 -134v-456zM1036 559l539 250v29q0 84 -113 84h-301q-125 0 -125 -140v-223z" />
<glyph unicode="&#x178;" horiz-adv-x="1273" d="M0 1475h252l379 -613l389 613h254l-535 -842v-633h-215l-2 631zM326 1659q0 53 38 91t91 38t91 -38t38 -91t-38 -91t-91 -38t-91 37.5t-38 91.5zM684 1659q0 53 38 91t91 38t91 -38t38 -91t-37.5 -91t-91.5 -38q-53 0 -91 37.5t-38 91.5z" />
<glyph unicode="&#x2c6;" horiz-adv-x="655" d="M53 1217l160 256h217l174 -254h-160l-118 174l-113 -176h-160z" />
<glyph unicode="&#x2dc;" horiz-adv-x="841" d="M94 1237v131l60 35q45 27 120 29q18 0 142.5 -50.5t148.5 -50.5q41 0 88 27l103 57v-127l-68 -41q-55 -33 -125 -35q-47 0 -156.5 56.5t-125.5 56.5q-37 0 -78 -20z" />
<glyph unicode="&#x2000;" horiz-adv-x="984" />
<glyph unicode="&#x2001;" horiz-adv-x="1968" />
<glyph unicode="&#x2002;" horiz-adv-x="984" />
<glyph unicode="&#x2003;" horiz-adv-x="1968" />
<glyph unicode="&#x2004;" horiz-adv-x="656" />
<glyph unicode="&#x2005;" horiz-adv-x="492" />
<glyph unicode="&#x2006;" horiz-adv-x="328" />
<glyph unicode="&#x2007;" horiz-adv-x="328" />
<glyph unicode="&#x2008;" horiz-adv-x="246" />
<glyph unicode="&#x2009;" horiz-adv-x="393" />
<glyph unicode="&#x200a;" horiz-adv-x="109" />
<glyph unicode="&#x2010;" horiz-adv-x="669" d="M72 469v215h526v-213z" />
<glyph unicode="&#x2011;" horiz-adv-x="669" d="M72 469v215h526v-213z" />
<glyph unicode="&#x2012;" horiz-adv-x="669" d="M72 469v215h526v-213z" />
<glyph unicode="&#x2013;" horiz-adv-x="1142" d="M51 461v207h1032v-207h-1032z" />
<glyph unicode="&#x2014;" horiz-adv-x="1478" d="M78 621v219h1337v-219h-1337z" />
<glyph unicode="&#x2018;" horiz-adv-x="372" d="M55 1137q0 39 27 102l98 236h125l-92 -207q104 -23 104 -123q0 -55 -35.5 -95t-93.5 -42q-53 -2 -93 37.5t-40 91.5z" />
<glyph unicode="&#x2019;" horiz-adv-x="372" d="M55 1339q-2 57 35 95.5t94 40.5q53 2 92 -38t41 -91q2 -35 -26 -103l-98 -235h-125l92 206q-102 23 -105 125z" />
<glyph unicode="&#x201c;" horiz-adv-x="671" d="M55 1137q0 39 27 102l98 236h125l-92 -207q104 -23 104 -123q0 -55 -35.5 -95t-93.5 -42q-53 -2 -93 37.5t-40 91.5zM354 1137q-2 39 25 102l98 236h125l-92 -207q106 -25 106 -123q0 -57 -36.5 -96t-94.5 -41q-51 -2 -90 33.5t-41 95.5z" />
<glyph unicode="&#x201d;" horiz-adv-x="671" d="M55 1339q-2 57 35 95.5t94 40.5q53 2 92 -38t41 -91q2 -35 -26 -103l-98 -235h-125l92 206q-102 23 -105 125zM354 1339q-2 57 35 95.5t94 40.5q51 2 90 -32t41 -95q2 -43 -24 -105l-98 -235h-125l92 206q-102 23 -105 125z" />
<glyph unicode="&#x2022;" horiz-adv-x="745" d="M74 717q0 121 87 208t208 87t208 -87t87 -208t-87.5 -208t-207.5 -87q-121 0 -208 87t-87 208z" />
<glyph unicode="&#x202f;" horiz-adv-x="393" />
<glyph unicode="&#x205f;" horiz-adv-x="492" />
<glyph unicode="&#x2122;" horiz-adv-x="1462" d="M29 1335v138h489v-138h-176v-694h-139v694h-174zM555 641v702q0 137 133 138q86 0 117 -103l164 -561l166 561q31 102 118 103q133 0 133 -138v-702h-137v635l-162 -539q-31 -104 -116 -106q-86 -2 -119 106l-160 537v-633h-137z" />
<glyph unicode="&#xe000;" horiz-adv-x="1105" d="M0 0v1106h1106v-1106h-1106z" />
</font>
</defs>
</svg>
